<?xml version="1.0" standalone="no"?>
<!DOCTYPE svg PUBLIC "-//W3C//DTD SVG 20010904//EN"
 "http://www.w3.org/TR/2001/REC-SVG-20010904/DTD/svg10.dtd">
<svg version="1.0" xmlns="http://www.w3.org/2000/svg"
 width="512.000000pt" height="512.000000pt" viewBox="0 0 512.000000 512.000000"
 preserveAspectRatio="xMidYMid meet">
<metadata>
Created by potrace 1.11, written by Peter Selinger 2001-2013
</metadata>
<g transform="translate(0.000000,512.000000) scale(0.100000,-0.100000)"
fill="#000000" stroke="none">
<path d="M2185 3901 c-173 -51 -285 -335 -253 -636 31 -293 199 -488 361 -420
226 94 312 581 157 886 -65 126 -175 197 -265 170z"/>
<path d="M2930 3783 c-113 -56 -196 -198 -236 -403 -12 -64 -10 -263 3 -325
56 -250 192 -373 340 -305 93 42 177 168 224 335 31 107 33 324 5 430 -60 226
-198 337 -336 268z"/>
<path d="M1491 3308 c-206 -54 -291 -395 -164 -657 15 -29 48 -76 74 -105 172
-189 405 -98 462 180 64 310 -147 640 -372 582z"/>
<path d="M3573 3135 c-91 -27 -185 -122 -242 -245 -43 -92 -62 -171 -66 -275
-3 -76 0 -112 19 -200 1 -5 12 -31 25 -58 103 -211 329 -176 469 73 55 100 81
195 87 325 8 163 -45 298 -141 361 -35 23 -106 32 -151 19z"/>
<path d="M2362 2714 c-136 -28 -211 -90 -334 -275 -127 -191 -193 -246 -397
-336 -199 -87 -270 -179 -276 -361 -5 -127 24 -214 98 -298 63 -72 162 -129
262 -152 87 -19 275 1 585 64 110 23 140 25 250 20 117 -6 239 -28 285 -54 51
-27 171 -42 300 -37 128 5 166 10 255 37 153 46 238 154 247 317 9 163 -39
233 -272 398 -164 116 -224 176 -337 336 -151 214 -231 288 -361 329 -77 25
-218 31 -305 12z"/>
</g>
</svg>
