<svg height='300px' width='300px'  fill="#000000" xmlns="http://www.w3.org/2000/svg" xmlns:xlink="http://www.w3.org/1999/xlink" version="1.1" x="0px" y="0px" viewBox="0 0 100 100" style="enable-background:new 0 0 100 100;" xml:space="preserve"><style type="text/css">
	.st0{fill:none;stroke:#000000;stroke-width:2;stroke-miterlimit:10;}
</style><g><path d="M86.3,13.5L75.7,24.1C52.4,13.9,24.2,18.2,5.1,37.3l9,9c14-14,34.1-18.1,51.7-12.3L55.3,44.5c-11.4-1.6-23.4,2-32.2,10.8   l9,9c2.8-2.8,6-4.8,9.5-6L17,82.8l3.7,3.7l69.3-69.3L86.3,13.5z"></path><path d="M42.4,72l-1.3,1.3l8.9,8.9l9-9C54.5,68.7,47.4,68.3,42.4,72z"></path><path d="M56.7,57.7c4.1,1.1,8,3.3,11.2,6.5l9-9c-3.1-3.1-6.6-5.6-10.4-7.4L56.7,57.7z"></path><path d="M85.1,29.3l-9.2,9.2c3.6,2.1,6.9,4.7,10,7.8l9-9C91.9,34.3,88.6,31.6,85.1,29.3z"></path></g></svg>